<?xml version="1.0" encoding="UTF-8"?>
<svg id="Layer_1" data-name="Layer 1" xmlns="http://www.w3.org/2000/svg" viewBox="0 0 578.02 522.72">
  <defs>
    <style>
      .cls-1 {
        fill: #fff;
      }

      .cls-2 {
        fill: #5ce1e6;
      }
    </style>
  </defs>
  <path class="cls-2" d="M479.42,257.77c-12.18-12.23-24.18-24.26-36.91-37.02,7.6-12.91,11.78-28.68,8.28-45.79-5.12-25.01-19.85-42.16-44.07-49.78-24.54-7.73-46.85-2.08-65.23,16.09-13.14,13.03-26.24,26.07-39.31,39.14l-.57,.57c-10.3,10.29-20.59,20.57-30.86,30.88-1.27,1.29-2.55,2.57-3.84,3.84-12.52,12.57-25.03,25.15-37.57,37.72-.43,.43-.85,.89-1.25,1.38l-5.07,5.1c-13.18-13.1-24.71-24.58-36.57-36.4,1.8-1.91,3.54-3.88,5.39-5.73,37.36-37.4,74.53-74.99,112.18-112.08,33.5-33.01,73.64-43.79,118.4-29.55,45.09,14.31,71.96,46.46,79.66,93.21,5.41,32.82-3.01,62.7-22.67,88.43Z"/>
  <path class="cls-2" d="M99.7,310.95c12.58,12.63,24.47,24.56,36.79,36.92-8.54,14.48-12.6,30.51-8.86,47.91,5.3,24.71,20.13,41.45,44,48.93,24.22,7.58,46.45,2.25,64.61-15.68,37.63-37.14,74.85-74.69,112.16-112.14,2.25-2.26,3.82-5.2,5.46-7.49,13.37,13.41,25.26,25.34,37.4,37.52-1.12,1.2-2.69,3-4.37,4.68-37.56,37.59-74.88,75.42-112.78,112.67-34.02,33.44-74.72,43.97-119.96,28.91-44.6-14.85-70.88-47.22-78.16-93.64-5.1-32.52,3.42-62.17,23.7-88.59Z"/>
  <path class="cls-1" d="M493.87,430.22c-.58,1.32-1.18,2.63-1.82,3.93-15.01,30.87-44.45,54.3-77.87,62.16-22.4,5.27-46.29,3.5-67.85-4.42-5.42-1.99-10.7-4.38-15.77-7.14-2.54-1.38-5.02-2.85-7.45-4.42-1.89-1.22-5.51-2.86-5.81-5.4-.33-2.7,3.59-5.35,5.26-7.05,2.42-2.46,4.84-4.92,7.27-7.36,4.86-4.9,9.75-9.76,14.67-14.6,2.66-2.61,5.32-5.21,8-7.81,15.4,9.36,34.72,12.03,52.09,7.21,17.37-4.83,32.54-17.08,40.9-33.04,6.56-12.52,8.95-27.39,5.57-41.11-3.12-12.69-10.84-23.75-19.18-33.8-23.47-28.29-52.87-51.1-77.37-78.5-13,13.02-25.99,26.03-38.99,39.05-13.29-13.18-26.58-26.36-39.88-39.54,25.11-25.16,50.22-50.32,75.33-75.47,30.7,30.16,61.41,60.33,92.11,90.49,18.8,18.47,37.97,37.45,49.36,61.22,14.21,29.66,14.61,65.51,1.42,95.61Z"/>
  <path class="cls-1" d="M303.49,309.95l-41.1,41.1c-12.06,12.02-23.65,23.6-35.62,35.55-.04-.04-.09-.08-.13-.11-.79-.7-2.29-1.93-3.67-3.31-38.14-38.14-76.63-75.91-114.28-114.5-32.14-32.97-41.97-72.72-28.49-116.53,13.42-43.6,44.19-70.05,88.79-79.62,32.61-7.01,69.81,2.55,94.03,23.33-12.23,12.2-24.18,24.09-36.62,36.47-12.38-7.34-26.24-11.68-41.44-9.91-26.39,3.06-45.07,16.96-54.36,41.69-9.45,25.13-4.37,48.42,14.29,67.65,13.86,14.26,27.87,28.36,41.96,42.43,12.18,12.16,24.39,24.28,36.59,36.42l40.2-40.2,39.88,39.54Z"/>
</svg>