<?xml version="1.0" encoding="iso-8859-1"?>
<!-- Uploaded to: SVG Repo, www.svgrepo.com, Generator: SVG Repo Mixer Tools -->
<svg fill="#00F6FF" height="800px" width="800px" version="1.1" id="Layer_1" xmlns="http://www.w3.org/2000/svg" xmlns:xlink="http://www.w3.org/1999/xlink" 
	 viewBox="0 0 461.456 461.456" xml:space="preserve">
<g>
	<g>
		<g>
			<path d="M397.001,230.594V108.228c0-3.456-2.22-6.522-5.504-7.601c-3.286-1.081-6.89,0.074-8.938,2.858l-89.602,121.742H97.332
				c-24.454,0-47.979,8.957-66.24,25.221L7.844,271.155c-5.414,4.822-8.255,11.737-7.796,18.973
				c0.46,7.235,4.154,13.735,10.134,17.833l14.193,9.725c16.647,11.406,36.113,17.435,56.295,17.436l92.36-0.347l110.156,96.472
				c1.505,1.318,3.386,1.982,5.272,1.982c0.006,0,0.013,0,0.019,0c4.419,0,8-3.582,8-8c0-1.544-0.438-2.987-1.196-4.21
				l-45.658-86.531l68.864-0.259c2.483-0.009,4.821-1.171,6.329-3.146l71-93C397.46,235.928,397.881,233.112,397.001,230.594z
				 M261.21,390.731l-112.476-98.503h60.501L261.21,390.731z M314.488,318.243l-73.29,0.276l-20.063-38.024
				c-1.385-2.625-4.108-4.267-7.076-4.267h-86.603c-3.332,0-6.315,2.065-7.488,5.185c-1.173,3.119-0.289,6.638,2.218,8.833
				l32.653,28.597l-73.854,0.278h-0.314c-16.94,0-33.279-5.061-47.251-14.635l-14.193-9.725c-1.895-1.298-3.064-3.357-3.21-5.649
				s0.755-4.482,2.47-6.01l23.248-20.705c15.328-13.651,35.073-21.169,55.599-21.169h199.669h76.283L314.488,318.243z
				 M381.001,225.228h-68.179l68.179-92.634V225.228z"/>
			<path d="M65.456,264.228c-4.418,0-8,3.582-8,8v11c0,4.418,3.581,8,8,8s8-3.582,8-8v-11
				C73.456,267.81,69.875,264.228,65.456,264.228z"/>
			<path d="M92.456,264.228c-4.418,0-8,3.582-8,8v11c0,4.418,3.582,8,8,8c4.419,0,8-3.582,8-8v-11
				C100.456,267.81,96.875,264.228,92.456,264.228z"/>
			<path d="M247.456,264.228c-4.419,0-8,3.582-8,8v11c0,4.418,3.581,8,8,8s8-3.582,8-8v-11
				C255.456,267.81,251.875,264.228,247.456,264.228z"/>
			<path d="M274.456,264.228c-4.418,0-8,3.582-8,8v11c0,4.418,3.582,8,8,8c4.418,0,8-3.582,8-8v-11
				C282.456,267.81,278.875,264.228,274.456,264.228z"/>
			<path d="M293.001,272.228v11c0,4.418,3.582,8,8,8c4.418,0,8-3.582,8-8v-11c0-4.418-3.582-8-8-8
				C296.582,264.228,293.001,267.81,293.001,272.228z"/>
			<path d="M453.456,249.121h-8c-4.418,0-8,3.581-8,8c0,4.418,3.582,8,8,8h8c4.418,0,8-3.582,8-8
				C461.456,252.703,457.875,249.121,453.456,249.121z"/>
			<path d="M405.456,265.121h8c4.418,0,8-3.582,8-8c0-4.419-3.582-8-8-8h-8c-4.418,0-8,3.581-8,8S401.038,265.121,405.456,265.121z"
				/>
			<path d="M433.456,284.121h-8c-4.418,0-8,3.582-8,8c0,4.418,3.582,8,8,8h8c4.418,0,8-3.582,8-8
				C441.456,287.703,437.875,284.121,433.456,284.121z"/>
			<path d="M401.456,292.121c0-4.418-3.582-8-8-8h-8c-4.418,0-8,3.582-8,8c0,4.418,3.582,8,8,8h8
				C397.875,300.121,401.456,296.54,401.456,292.121z"/>
			<path d="M373.456,319.121h-8c-4.418,0-8,3.582-8,8c0,4.418,3.582,8,8,8h8c4.418,0,8-3.582,8-8
				C381.456,322.703,377.875,319.121,373.456,319.121z"/>
			<path d="M413.456,319.121h-8c-4.418,0-8,3.582-8,8c0,4.418,3.582,8,8,8h8c4.418,0,8-3.582,8-8
				C421.456,322.703,417.875,319.121,413.456,319.121z"/>
			<path d="M38.755,112.228h108.9c-1.474,2.232-2.789,4.584-3.916,7.045c-2.91-0.149-5.859,0.076-8.738,0.67
				c-15.128,3.125-26.223,16.111-26.98,31.565l-0.017,0.387c-0.204,5.327,1.732,10.388,5.451,14.252
				c3.718,3.863,8.926,6.079,14.289,6.079h153.48c10.782,0,19.643-8.764,19.752-19.54c0.003-0.307,0.003-0.615,0-0.928
				c-0.255-24.971-20.019-44.531-44.994-44.531h-0.153c-6.959,0.023-13.651,1.601-19.74,4.615
				c-5.922-8.885-14.364-15.694-24.102-19.67c0-0.138,0.001-0.274,0-0.413c-0.255-24.971-20.019-44.531-44.994-44.531h-0.153
				c-6.959,0.023-13.651,1.601-19.74,4.615c-9.718-14.582-26.202-23.615-44.111-23.615c-20.797,0-39.735,12.469-48.239,31.045
				c-2.91-0.15-5.859,0.075-8.738,0.67c-15.128,3.125-26.223,16.111-26.98,31.565l-0.017,0.387
				c-0.204,5.327,1.732,10.388,5.451,14.252C28.184,110.012,33.392,112.228,38.755,112.228z M225.848,126.323
				c0.996,2.261,2.98,3.935,5.377,4.535c2.396,0.6,4.936,0.06,6.879-1.464c5.12-4.013,11.267-6.145,17.778-6.167h0.101
				c16.094,0,28.83,12.605,28.995,28.69c0.002,0.206,0.002,0.411,0,0.612c-0.021,2.039-1.705,3.698-3.753,3.698h-153.48
				c-1.419,0-2.338-0.735-2.76-1.174c-0.478-0.497-1.037-1.341-0.991-2.539l0.009-0.207c0.395-8.051,6.382-15.072,14.236-16.695
				c1.237-0.255,2.495-0.385,3.741-0.385c1.626,0,3.239,0.218,4.794,0.649c4.187,1.159,8.536-1.234,9.794-5.393
				c4.676-15.459,19.238-26.256,35.413-26.256C206.64,104.228,219.934,112.901,225.848,126.323z M35.012,92.308
				c0.395-8.051,6.382-15.072,14.236-16.695c1.237-0.255,2.495-0.385,3.741-0.385c1.626,0,3.239,0.218,4.794,0.649
				c4.188,1.159,8.536-1.234,9.794-5.393c4.676-15.459,19.238-26.256,35.413-26.256c14.661,0,27.956,8.673,33.869,22.095
				c0.996,2.261,2.98,3.935,5.377,4.535c2.395,0.599,4.936,0.06,6.879-1.464c5.12-4.013,11.267-6.145,17.778-6.167h0.101
				c14.889,0,26.897,10.792,28.742,25.144c-1.245-0.088-2.496-0.144-3.757-0.144c-10.034,0-19.631,2.909-27.837,8H38.755
				c-1.419,0-2.338-0.735-2.76-1.174c-0.478-0.497-1.037-1.341-0.991-2.539L35.012,92.308z"/>
		</g>
	</g>
</g>
</svg>