<?xml version="1.0" encoding="UTF-8"?>
<svg id="Layer_1" data-name="Layer 1" xmlns="http://www.w3.org/2000/svg" viewBox="0 0 1375.05 236.74">
  <defs>
    <style>
      .cls-1 {
        fill: #fff;
      }

      .cls-2 {
        fill: #5ce1e6;
      }

      .cls-3 {
        fill: #00040f;
      }
    </style>
  </defs>
  <g>
    <path class="cls-2" d="M223.08,103.41c-6.71-6.74-13.32-13.36-20.32-20.39,4.19-7.11,6.49-15.79,4.56-25.22-2.82-13.77-10.93-23.22-24.27-27.41-13.51-4.26-25.8-1.15-35.92,8.86-7.24,7.17-14.45,14.36-21.65,21.55l-.31,.31c-5.67,5.66-11.34,11.33-16.99,17-.7,.71-1.41,1.42-2.11,2.11-6.89,6.92-13.79,13.85-20.69,20.77-.24,.24-.47,.49-.69,.76l-2.79,2.81c-7.26-7.22-13.61-13.54-20.14-20.04,.99-1.05,1.95-2.13,2.97-3.15,20.57-20.59,41.04-41.29,61.77-61.72C144.95,1.48,167.05-4.46,191.69,3.38c24.83,7.88,39.63,25.58,43.86,51.33,2.98,18.07-1.66,34.53-12.48,48.7Z"/>
    <path class="cls-2" d="M13.98,132.69c6.93,6.95,13.47,13.52,20.26,20.33-4.7,7.97-6.94,16.8-4.88,26.38,2.92,13.61,11.09,22.83,24.23,26.94,13.34,4.18,25.58,1.24,35.58-8.63,20.72-20.45,41.22-41.13,61.77-61.75,1.24-1.24,2.1-2.86,3.01-4.12,7.36,7.39,13.91,13.95,20.6,20.66-.61,.66-1.48,1.65-2.41,2.58-20.68,20.7-41.23,41.53-62.1,62.04-18.73,18.41-41.14,24.21-66.06,15.92C19.4,224.86,4.93,207.03,.92,181.47c-2.81-17.91,1.88-34.24,13.05-48.78Z"/>
    <path class="cls-1" d="M231.04,198.37c-.32,.73-.65,1.45-1,2.16-8.26,17-24.48,29.9-42.88,34.23-12.34,2.9-25.49,1.93-37.36-2.44-2.98-1.1-5.89-2.41-8.68-3.93-1.4-.76-2.76-1.57-4.1-2.43-1.04-.67-3.03-1.58-3.2-2.97-.18-1.49,1.98-2.95,2.9-3.88,1.33-1.36,2.66-2.71,4-4.06,2.68-2.7,5.37-5.37,8.08-8.04,1.46-1.44,2.93-2.87,4.4-4.3,8.48,5.15,19.12,6.63,28.68,3.97,9.56-2.66,17.92-9.41,22.52-18.2,3.61-6.89,4.93-15.08,3.07-22.64-1.72-6.99-5.97-13.08-10.56-18.62-12.92-15.58-29.11-28.14-42.61-43.23-7.16,7.17-14.31,14.33-21.47,21.5-7.32-7.26-14.64-14.51-21.96-21.77,13.83-13.85,27.66-27.71,41.48-41.56,16.91,16.61,33.81,33.22,50.72,49.83,10.35,10.17,20.91,20.62,27.18,33.71,7.82,16.33,8.04,36.08,.78,52.65Z"/>
    <path class="cls-1" d="M126.19,132.14l-22.63,22.63c-6.64,6.62-13.03,12.99-19.62,19.57-.02-.02-.05-.04-.07-.06-.44-.39-1.26-1.06-2.02-1.82-21-21-42.2-41.8-62.93-63.05C1.22,91.26-4.19,69.37,3.23,45.25,10.63,21.24,27.57,6.67,52.13,1.4c17.96-3.86,38.44,1.41,51.78,12.85-6.74,6.72-13.32,13.26-20.17,20.08-6.82-4.04-14.45-6.43-22.82-5.46-14.53,1.69-24.82,9.34-29.93,22.96-5.21,13.84-2.41,26.66,7.87,37.25,7.63,7.85,15.35,15.62,23.1,23.36,6.71,6.69,13.43,13.37,20.15,20.05l22.14-22.14,21.96,21.77Z"/>
  </g>
  <g>
    <path class="cls-1" d="M972.05,156.31h65.71v22.42h-93.48V58.01h91.23v22.42h-63.47v75.89Zm-2.07-49.67h58.12v21.73h-58.12v-21.73Z"/>
    <path class="cls-1" d="M1156.97,180.58c-9.31,0-17.97-1.52-25.96-4.57-7.99-3.05-14.92-7.39-20.78-13.02-5.86-5.63-10.43-12.25-13.71-19.84-3.28-7.59-4.92-15.92-4.92-25.01s1.64-17.42,4.92-25.01c3.28-7.59,7.87-14.2,13.8-19.83,5.92-5.63,12.85-9.97,20.78-13.02,7.93-3.04,16.61-4.57,26.04-4.57,10.46,0,19.92,1.81,28.37,5.43,8.45,3.62,15.55,8.94,21.3,15.95l-17.94,16.56c-4.14-4.71-8.74-8.25-13.8-10.6-5.06-2.36-10.58-3.54-16.56-3.54-5.63,0-10.81,.92-15.52,2.76-4.72,1.84-8.8,4.48-12.24,7.93-3.45,3.45-6.12,7.53-8.02,12.24-1.9,4.72-2.85,9.95-2.85,15.7s.95,10.98,2.85,15.7,4.57,8.8,8.02,12.24c3.45,3.45,7.53,6.1,12.24,7.93,4.71,1.84,9.89,2.76,15.52,2.76,5.98,0,11.5-1.18,16.56-3.54,5.06-2.36,9.66-5.95,13.8-10.78l17.94,16.56c-5.75,7.02-12.85,12.36-21.3,16.04s-17.97,5.52-28.54,5.52Z"/>
    <path class="cls-2" d="M1146.94,117.42h0c0,6.53,4.94,11.82,11.03,11.82h177.74v-23.64h-177.74c-6.09,0-11.03,5.29-11.03,11.82Z"/>
    <rect class="cls-1" x="1347.09" y="57.99" width="27.96" height="120.75"/>
    <rect class="cls-1" x="1264.31" y="57.99" width="27.94" height="40.9"/>
    <rect class="cls-1" x="1264.31" y="135.55" width="27.94" height="43.19"/>
    <path class="cls-2" d="M356.74,182.54c-8.39,0-16.1-1.57-23.13-4.7-7.03-3.13-12.79-7.59-17.28-13.38l15.95-19.15c3.43,4.49,7.03,7.89,10.81,10.19,3.78,2.3,7.86,3.46,12.23,3.46,11.7,0,17.55-6.85,17.55-20.56v-59.03h-43.61v-23.05h72.15v80.48c0,15.36-3.78,26.83-11.35,34.39-7.56,7.56-18.67,11.35-33.33,11.35Z"/>
    <path class="cls-2" d="M593.22,118.38c0,9.2-1.71,17.75-5.14,25.61-3.43,7.85-8.19,14.65-14.27,20.39-6.1,5.72-13.24,10.18-21.45,13.38-8.21,3.19-17.17,4.78-26.85,4.78s-18.88-1.59-27.21-4.78c-8.34-3.19-15.54-7.69-21.64-13.48-6.08-5.79-10.81-12.59-14.17-20.39-3.36-7.78-5.04-16.31-5.04-25.51s1.68-17.75,5.04-25.53c3.36-7.81,8.12-14.6,14.27-20.39,6.15-5.79,13.36-10.28,21.62-13.48,8.29-3.19,17.27-4.78,26.95-4.78s18.83,1.59,27.05,4.78c8.21,3.19,15.35,7.69,21.45,13.48,6.08,5.79,10.83,12.56,14.27,20.3,3.43,7.73,5.14,16.29,5.14,25.63Z"/>
    <polygon class="cls-2" points="752.76 56.32 724.57 56.32 691.35 111.41 658.28 56.32 627.78 56.32 675.83 136.18 675.83 180.41 704.54 180.41 704.54 136.48 752.76 56.32"/>
    <path class="cls-1" d="M823.67,180.41V79.72h-39.71v-23.4h108.14v23.4h-39.71v100.69h-28.72Z"/>
    <path class="cls-3" d="M493.25,92.34c.39-.35,.69-.37,1.16-.19,12.28,4.71,24.57,9.41,36.85,14.13,.5,.19,.81,.12,1.22-.21,3.67-3.05,12.82-10.6,17.14-12.68,1.22-.59,2.52-1.02,3.83-1.39,.69-.19,1.48-.19,2.2-.11,.57,.07,1.07,.35,1.42,.76,.35,.4,.56,.94,.55,1.51-.02,.73-.12,1.5-.41,2.16-.54,1.24-1.16,2.47-1.91,3.6-2.66,4-11.41,12-14.94,15.22-.39,.35-.5,.65-.38,1.18,2.97,12.81,5.92,25.63,8.88,38.45,.11,.49,.05,.79-.35,1.12-1.34,1.11-2.64,2.28-3.96,3.42h0c-.26,.22-.65,.16-.83-.13-6.22-10.38-12.41-20.7-18.61-31.04-.1-.17-.32-.22-.48-.1,0,0,0,0,0,0-1.74,1.31-3.43,2.67-5.2,3.94-4.75,3.42-9.53,6.81-14.32,10.19-.41,.29-.57,.54-.46,1.07,.71,3.39,1.38,6.79,2.05,10.19,.04,.21,.06,.54-.07,.65-.89,.81-1.8,1.6-2.74,2.41-.22,.19-.57,.12-.7-.15-1.59-3.38-3.14-6.69-4.71-10.03-.37,.19-.64,.36-.93,.48-1.06,.42-2.1,.89-3.19,1.2-.35,.1-.62,.04-.75-.14-.16-.16-.19-.43-.04-.77,.46-1.03,1.07-2,1.63-2.99,.16-.28,.36-.52,.6-.86-3.09-2.02-6.15-4.01-9.28-6.06-.25-.16-.27-.52-.05-.71,.94-.82,1.84-1.61,2.77-2.38,.13-.11,.45-.04,.66,.03,3.27,1.13,6.55,2.27,9.81,3.44,.51,.18,.77,.06,1.12-.31,4.01-4.27,8.02-8.53,12.07-12.77,1.5-1.57,3.09-3.06,4.63-4.6,0,0,0,0,0,0,.14-.14,.12-.37-.03-.49-9.38-7.57-18.74-15.14-28.16-22.74-.26-.21-.27-.62-.02-.84h0c1.32-1.14,2.65-2.27,3.94-3.44Z"/>
    <g>
      <path class="cls-1" d="M490.66,151.93c-.22,0-.44-.07-.63-.23-.42-.35-.48-.97-.14-1.39,.8-.97,1.39-1.55,1.39-1.55,.39-.38,1.02-.37,1.4,.02,.38,.39,.38,1.02-.01,1.4-.02,.02-.54,.53-1.25,1.39-.2,.24-.48,.36-.77,.36Z"/>
      <path class="cls-1" d="M487.76,165.49c-.38,0-.74-.22-.91-.58-.11-.25-.24-.5-.37-.76-.5-.94-.81-1.96-.92-3.04-.05-.55,.34-1.03,.89-1.08,.55-.03,1.03,.35,1.08,.89,.08,.81,.31,1.59,.69,2.29,.16,.3,.31,.59,.43,.88,.22,.5,0,1.09-.5,1.31-.13,.06-.27,.09-.41,.09Zm-.78-7.15c-.1,0-.19-.01-.29-.04-.52-.16-.82-.72-.66-1.24,.36-1.16,.9-2.36,1.63-3.59,.28-.47,.89-.63,1.36-.35,.47,.28,.63,.88,.35,1.36-.64,1.09-1.13,2.16-1.44,3.17-.13,.43-.52,.7-.95,.7Zm-.32,13.68c-.14-.28-.12-.61,.04-.89,.59-.99,.87-2,.89-3.05,0-.54,.46-.95,.99-.97,.56,0,.99,.46,.99,1.01-.02,1.37-.42,2.72-1.15,4.01-.16,.3-.46,.48-.77,.48l-.99-.57Z"/>
    </g>
  </g>
</svg>